<svg width="82" height="82" viewBox="0 0 82 82" fill="none" xmlns="http://www.w3.org/2000/svg">
<path d="M25.3233 3.84986C25.3233 1.72364 23.5997 0 21.4734 0H3.84986C1.72364 0 0 1.72364 0 3.84986V21.4734C0 23.5997 1.72364 25.3233 3.84986 25.3233H21.4734C23.5997 25.3233 25.3233 23.5997 25.3233 21.4734V3.84986ZM20.2592 16.4086C20.2592 18.5349 18.5355 20.2585 16.4093 20.2585H8.9153C6.78908 20.2585 5.06544 18.5349 5.06544 16.4086V8.91464C5.06544 6.78842 6.78908 5.06478 8.9153 5.06478H16.4093C18.5355 5.06478 20.2592 6.78842 20.2592 8.91464V16.4086Z" fill="#7ACBFF"/>
<path d="M9.56726 12.9432C9.56726 14.4971 10.8269 15.7568 12.3809 15.7568C13.9348 15.7568 15.1944 14.4971 15.1944 12.9432C15.1944 11.3893 13.9348 10.1296 12.3809 10.1296C10.8269 10.1296 9.56726 11.3893 9.56726 12.9432Z" fill="#7ACBFF"/>
<path d="M81.034 3.84986C81.034 1.72364 79.3103 0 77.1841 0H59.5605C57.4343 0 55.7107 1.72364 55.7107 3.84986V21.4734C55.7107 23.5997 57.4343 25.3233 59.5606 25.3233H77.1841C79.3104 25.3233 81.034 23.5997 81.034 21.4734V3.84986ZM75.9699 16.4086C75.9699 18.5349 74.2462 20.2585 72.12 20.2585H64.626C62.4998 20.2585 60.7762 18.5349 60.7762 16.4086V8.91464C60.7762 6.78842 62.4998 5.06478 64.626 5.06478H72.12C74.2462 5.06478 75.9699 6.78842 75.9699 8.91464V16.4086Z" fill="#7ACBFF"/>
<path d="M65.2778 12.9432C65.2778 14.4971 66.5375 15.7568 68.0914 15.7568C69.6453 15.7568 70.905 14.4971 70.905 12.9432C70.905 11.3893 69.6453 10.1296 68.0914 10.1296C66.5375 10.1296 65.2778 11.3893 65.2778 12.9432Z" fill="#7ACBFF"/>
<path d="M0.000610352 77.1842C0.000610352 79.3104 1.72425 81.0341 3.85047 81.0341H21.474C23.6003 81.0341 25.3239 79.3104 25.3239 77.1842V59.5606C25.3239 57.4344 23.6003 55.7108 21.474 55.7108H3.85047C1.72425 55.7108 0.000610352 57.4344 0.000610352 59.5606V77.1842ZM5.06539 64.6254C5.06539 62.4992 6.78903 60.7756 8.91525 60.7756H16.4093C18.5355 60.7756 20.2591 62.4992 20.2591 64.6254V72.1194C20.2591 74.2456 18.5355 75.9693 16.4092 75.9693H8.91525C6.78903 75.9693 5.06539 74.2456 5.06539 72.1194V64.6254Z" fill="#7ACBFF"/>
<path d="M9.56726 68.6539C9.56726 70.2078 10.8269 71.4675 12.3809 71.4675C13.9348 71.4675 15.1944 70.2078 15.1944 68.6539C15.1944 67.1 13.9348 65.8403 12.3809 65.8403C10.8269 65.8403 9.56726 67.1 9.56726 68.6539Z" fill="#7ACBFF"/>
<path d="M40.5176 23.0724C40.5176 21.8293 41.5254 20.8215 42.7685 20.8215H43.0497C44.4481 20.8215 45.5818 19.6879 45.5818 18.2895V17.7258C45.5818 16.3274 44.4481 15.1937 43.0497 15.1937C41.6513 15.1937 40.5176 14.0601 40.5176 12.6616V7.59717C40.5176 6.19857 39.3839 5.06478 37.9853 5.06478C36.5867 5.06478 35.4529 3.93099 35.4529 2.53239C35.4529 1.13379 34.3191 0 32.9205 0C31.5219 0 30.3881 1.13379 30.3881 2.5324V7.59718C30.3881 8.99578 31.522 10.1296 32.9206 10.1296C34.319 10.1296 35.4529 11.2632 35.4529 12.6616C35.4529 14.0601 34.319 15.1937 32.9206 15.1937C31.522 15.1937 30.3881 16.3275 30.3881 17.7261V18.2891C30.3881 19.6877 31.5219 20.8215 32.9205 20.8215H33.202C34.4451 20.8215 35.4529 21.8293 35.4529 23.0724C35.4529 24.3155 36.4606 25.3233 37.7037 25.3233H38.2668C39.5099 25.3233 40.5176 24.3155 40.5176 23.0724Z" fill="#7ACBFF"/>
<path d="M32.9205 35.4522C34.3191 35.4522 35.4529 34.3184 35.4529 32.9198V27.8556C35.4529 26.457 34.319 25.3232 32.9204 25.3232C31.5219 25.3232 30.3881 26.4569 30.3881 27.8553C30.3881 29.2537 29.2545 30.3874 27.8561 30.3874H21.2952C19.1689 30.3874 17.4453 32.111 17.4453 34.2372V36.8591C17.4453 38.8793 15.8076 40.5169 13.7875 40.5169H12.662C11.2634 40.5169 10.1296 41.6507 10.1296 43.0493C10.1296 44.4479 11.2634 45.5817 12.662 45.5817H22.2286C23.6272 45.5817 24.761 44.4479 24.761 43.0493C24.761 41.6507 25.8948 40.5169 27.2934 40.5169H27.8557C29.2543 40.5169 30.3881 39.3832 30.3881 37.9846C30.3881 36.5859 31.5219 35.4522 32.9205 35.4522Z" fill="#7ACBFF"/>
<path d="M12.6626 30.3874H7.59783C6.19922 30.3874 5.06543 31.5212 5.06543 32.9198C5.06543 34.3184 6.19922 35.4522 7.59783 35.4522H12.6626C14.0612 35.4522 15.195 34.3184 15.195 32.9198C15.195 31.5212 14.0612 30.3874 12.6626 30.3874Z" fill="#7ACBFF"/>
<path d="M7.03508 50.646C8.4335 50.646 9.56715 49.5123 9.56715 48.1139V47.8327C9.56715 46.5896 8.55939 45.5818 7.31627 45.5818C6.07314 45.5818 5.06539 44.5741 5.06539 43.3309V37.9846C5.06539 36.586 3.9316 35.4522 2.533 35.4522C1.1344 35.4522 0.000610352 36.586 0.000610352 37.9846V45.5818V46.7961C0.000610352 48.9223 1.72425 50.646 3.85047 50.646H5.06539H7.03508Z" fill="#7ACBFF"/>
<path d="M30.3881 58.2432C30.3881 59.6418 31.5219 60.7756 32.9205 60.7756C34.3191 60.7756 35.4529 59.6418 35.4529 58.2432C35.4529 56.8446 34.3191 55.7108 32.9205 55.7108C31.5219 55.7108 30.3881 56.8446 30.3881 58.2432Z" fill="#7ACBFF"/>
<path d="M68.3727 40.517C66.9741 40.517 65.8403 39.3832 65.8403 37.9846C65.8403 36.586 64.7065 35.4522 63.3079 35.4522C61.9093 35.4522 60.7755 36.586 60.7755 37.9846V40.517V41.732C60.7755 43.8582 59.0519 45.5818 56.9257 45.5818H53.1787C51.7803 45.5818 50.6466 46.7155 50.6466 48.1139C50.6466 49.5123 51.7803 50.646 53.1787 50.646H60.7755H63.3082C64.7067 50.646 65.8403 49.5123 65.8403 48.1139C65.8403 46.7155 66.9741 45.5818 68.3725 45.5818C69.7711 45.5818 70.9051 44.448 70.9051 43.0494C70.9051 41.6508 69.7713 40.517 68.3727 40.517Z" fill="#7ACBFF"/>
<path d="M30.3881 43.0494C30.3881 44.448 29.2542 45.5818 27.8556 45.5818C26.4572 45.5818 25.3234 46.7154 25.3234 48.1138C25.3234 49.5123 26.457 50.6459 27.8554 50.6459H40.7989C42.1973 50.6459 43.331 49.5123 43.331 48.1138V46.9884C43.331 46.2115 42.7012 45.5818 41.9244 45.5818C41.1475 45.5818 40.5177 44.952 40.5177 44.1751V43.0494C40.5177 41.6508 39.3839 40.517 37.9853 40.517H32.9205C31.5219 40.517 30.3881 41.6508 30.3881 43.0494Z" fill="#7ACBFF"/>
<path d="M78.7835 30.3874C77.2296 30.3874 75.97 31.647 75.97 33.2009V43.0493C75.97 44.4479 74.836 45.5817 73.4374 45.5817C72.039 45.5817 70.9052 46.7154 70.9052 48.1138C70.9052 49.5122 72.0388 50.6459 73.4372 50.6459H75.97H77.7473C79.8735 50.6459 81.5971 48.9222 81.5971 46.796V45.5817V33.2009C81.5971 31.647 80.3374 30.3874 78.7835 30.3874Z" fill="#7ACBFF"/>
<path d="M45.5818 58.2434C45.5818 59.6418 44.4481 60.7755 43.0497 60.7755C41.6513 60.7755 40.5176 61.9095 40.5176 63.3079C40.5176 64.7063 41.6513 65.8403 43.0497 65.8403C44.4481 65.8403 45.5818 66.9739 45.5818 68.3723V70.9044V73.4371C45.5818 74.8355 44.4481 75.9692 43.0497 75.9692C41.6513 75.9692 40.5176 74.8355 40.5176 73.4371V70.9044V69.6901C40.5176 67.5639 38.794 65.8403 36.6678 65.8403H32.9201C31.5217 65.8403 30.3881 66.9739 30.3881 68.3723C30.3881 69.7708 31.5219 70.9044 32.9203 70.9044C34.3189 70.9044 35.4529 72.0382 35.4529 73.4368C35.4529 74.8354 34.3191 75.9692 32.9205 75.9692C31.5219 75.9692 30.3881 77.103 30.3881 78.5016C30.3881 79.9002 31.5219 81.034 32.9205 81.034H68.3727C69.7713 81.034 70.9051 79.9002 70.9051 78.5016C70.9051 77.103 69.7713 75.9692 68.3727 75.9692C66.9741 75.9692 65.8403 74.8354 65.8403 73.4368C65.8403 72.0382 66.9741 70.9044 68.3727 70.9044C69.7713 70.9044 70.9051 72.0382 70.9051 73.4368C70.9051 74.8354 72.0389 75.9692 73.4375 75.9692C74.8361 75.9692 75.9699 77.103 75.9699 78.5016C75.9699 79.9002 77.1037 81.034 78.5023 81.034H78.7835C80.3374 81.034 81.597 79.7743 81.597 78.2204V70.9044V65.8403V63.026C81.597 61.4721 80.3373 60.2124 78.7835 60.2124H78.2207C76.9776 60.2124 75.9699 59.2047 75.9699 57.9616C75.9699 56.7184 74.9621 55.7107 73.719 55.7107H73.4375C72.0389 55.7107 70.9051 56.8445 70.9051 58.2431C70.9051 59.6417 72.0389 60.7755 73.4375 60.7755C74.8361 60.7755 75.9699 61.9093 75.9699 63.3079C75.9699 64.7065 74.8361 65.8403 73.4375 65.8403H69.6901C67.5639 65.8403 65.8403 64.1166 65.8403 61.9904V58.5243C65.8403 56.9704 64.5806 55.7107 63.0267 55.7107C61.4728 55.7107 60.2131 56.9704 60.2131 58.5243V72.1193C60.2131 74.2455 58.4895 75.9692 56.3633 75.9692H53.179C51.7804 75.9692 50.6466 74.8354 50.6466 73.4368C50.6466 72.0382 51.7805 70.9044 53.1791 70.9044C54.5776 70.9044 55.7114 69.7708 55.7114 68.3723C55.7114 66.9739 54.5776 65.8403 53.1791 65.8403C51.7805 65.8403 50.6466 64.7065 50.6466 63.3079C50.6466 61.9093 51.7804 60.7755 53.179 60.7755C54.5776 60.7755 55.7114 59.6417 55.7114 58.2431C55.7114 56.8445 54.5776 55.7107 53.179 55.7107C51.7804 55.7107 50.6466 54.5769 50.6466 53.1783C50.6466 51.7797 49.5128 50.6459 48.1142 50.6459C46.7156 50.6459 45.5818 51.7797 45.5818 53.1783V58.2434Z" fill="#7ACBFF"/>
<path d="M51.2096 30.3881C51.2096 28.8341 49.9497 27.5742 48.3956 27.5742C46.8416 27.5742 45.5817 28.8341 45.5817 30.3881V32.9202C45.5817 34.3186 44.4481 35.4523 43.0496 35.4523C41.6512 35.4523 40.5176 36.5862 40.5176 37.9847C40.5176 39.3831 41.6512 40.517 43.0496 40.517H44.1751C44.9519 40.517 45.5817 41.1468 45.5817 41.9237C45.5817 42.7005 46.2115 43.3303 46.9884 43.3303H49.8029C50.5798 43.3303 51.2096 42.7005 51.2096 41.9237C51.2096 41.1468 51.8393 40.517 52.6162 40.517H53.4604C54.7035 40.517 55.7113 39.5093 55.7113 38.2662V37.7031C55.7113 36.46 54.7035 35.4523 53.4604 35.4523C52.2173 35.4523 51.2096 34.4445 51.2096 33.2014V30.3881Z" fill="#7ACBFF"/>
<path d="M65.8403 32.9198C65.8403 34.3184 66.9741 35.4522 68.3727 35.4522C69.7713 35.4522 70.9051 34.3184 70.9051 32.9198C70.9051 31.5212 69.7713 30.3874 68.3727 30.3874C66.9741 30.3874 65.8403 31.5212 65.8403 32.9198Z" fill="#7ACBFF"/>
<path d="M55.7113 32.9198C55.7113 34.3184 56.8451 35.4522 58.2437 35.4522C59.6423 35.4522 60.7761 34.3184 60.7761 32.9198C60.7761 31.5212 59.6423 30.3874 58.2437 30.3874C56.8451 30.3874 55.7113 31.5212 55.7113 32.9198Z" fill="#7ACBFF"/>
<path d="M50.6467 12.6613V7.59716C50.6467 6.19855 49.5129 5.06476 48.1143 5.06476C46.7157 5.06476 45.5819 6.19855 45.5819 7.59716V12.6613C45.5819 14.0599 46.7157 15.1937 48.1143 15.1937C49.5129 15.1937 50.6467 14.0599 50.6467 12.6613Z" fill="#7ACBFF"/>
<path d="M40.5176 2.53239C40.5176 3.93099 41.6514 5.06478 43.05 5.06478C44.4486 5.06478 45.5824 3.93099 45.5824 2.53239C45.5824 1.13379 44.4486 0 43.05 0C41.6514 0 40.5176 1.13379 40.5176 2.53239Z" fill="#7ACBFF"/>
</svg>
