<svg width="360" height="360" viewBox="0 0 360 360" fill="none" xmlns="http://www.w3.org/2000/svg">
<path d="M320 320H40V40H320V320Z" stroke="#E5E7EB"/>
<g filter="url(#filter0_d_8_615)">
<path d="M40 64C40 50.7452 50.7452 40 64 40H296C309.255 40 320 50.7452 320 64V296C320 309.255 309.255 320 296 320H64C50.7452 320 40 309.255 40 296V64Z" fill="white"/>
<path d="M64 41H296C308.703 41 319 51.2975 319 64V296C319 308.703 308.703 319 296 319H64C51.2975 319 41 308.703 41 296V64C41 51.2975 51.2975 41 64 41Z" stroke="#7ACBFF" stroke-width="2"/>
<path d="M318 235.734H42V233.734H318V235.734Z" fill="url(#paint0_linear_8_615)"/>
<path d="M318 235.734H42V233.734H318V235.734Z" stroke="#E5E7EB"/>
<path d="M141.125 86.8077C141.125 82.4956 137.63 79 133.318 79H85.8077C81.4956 79 78 82.4956 78 86.8077V134.318C78 138.63 81.4956 142.125 85.8077 142.125H133.318C137.63 142.125 141.125 138.63 141.125 134.318V86.8077ZM128.502 121.692C128.502 126.004 125.006 129.5 120.694 129.5H98.4347C94.1226 129.5 90.627 126.004 90.627 121.692V99.433C90.627 95.121 94.1226 91.6254 98.4347 91.6254H120.694C125.006 91.6254 128.502 95.121 128.502 99.433V121.692Z" fill="#7ACBFF"/>
<path d="M101.849 111.265C101.849 115.138 104.989 118.278 108.863 118.278C112.736 118.278 115.876 115.138 115.876 111.265C115.876 107.391 112.736 104.251 108.863 104.251C104.989 104.251 101.849 107.391 101.849 111.265Z" fill="#7ACBFF"/>
<path d="M280 86.8077C280 82.4956 276.504 79 272.192 79H224.682C220.37 79 216.875 82.4956 216.875 86.8077V134.318C216.875 138.63 220.37 142.125 224.682 142.125H272.192C276.504 142.125 280 138.63 280 134.318V86.8077ZM267.376 121.692C267.376 126.004 263.881 129.5 259.569 129.5H237.309C232.997 129.5 229.502 126.004 229.502 121.692V99.433C229.502 95.121 232.997 91.6254 237.309 91.6254H259.569C263.881 91.6254 267.376 95.121 267.376 99.433V121.692Z" fill="#7ACBFF"/>
<path d="M240.723 111.265C240.723 115.138 243.864 118.278 247.737 118.278C251.611 118.278 254.751 115.138 254.751 111.265C254.751 107.391 251.611 104.251 247.737 104.251C243.864 104.251 240.723 107.391 240.723 111.265Z" fill="#7ACBFF"/>
<path d="M78.0017 273.192C78.0017 277.504 81.4973 281 85.8094 281H133.319C137.631 281 141.127 277.504 141.127 273.192V225.682C141.127 221.37 137.631 217.875 133.319 217.875H85.8094C81.4973 217.875 78.0017 221.37 78.0017 225.682V273.192ZM90.6271 238.308C90.6271 233.996 94.1227 230.5 98.4347 230.5H120.694C125.006 230.5 128.502 233.996 128.502 238.308V260.567C128.502 264.879 125.006 268.375 120.694 268.375H98.4347C94.1227 268.375 90.6271 264.879 90.6271 260.567V238.308Z" fill="#7ACBFF"/>
<path d="M101.849 250.139C101.849 254.012 104.989 257.153 108.863 257.153C112.736 257.153 115.876 254.012 115.876 250.139C115.876 246.265 112.736 243.125 108.863 243.125C104.989 243.125 101.849 246.265 101.849 250.139Z" fill="#7ACBFF"/>
<path d="M179.002 136.514C179.002 133.416 181.514 130.903 184.613 130.903H185.314C188.8 130.903 191.626 128.078 191.626 124.592V123.186C191.626 119.7 188.8 116.875 185.314 116.875C181.828 116.875 179.002 114.049 179.002 110.563V97.9381C179.002 94.4517 176.175 91.6254 172.689 91.6254C169.203 91.6254 166.376 88.7991 166.376 85.3127C166.376 81.8263 163.55 79 160.064 79C156.577 79 153.751 81.8263 153.751 85.3127V97.9381C153.751 101.424 156.578 104.251 160.064 104.251C163.55 104.251 166.376 107.077 166.376 110.563C166.376 114.049 163.55 116.875 160.064 116.875C156.578 116.875 153.751 119.701 153.751 123.187V124.591C153.751 128.077 156.577 130.903 160.064 130.903H160.765C163.864 130.903 166.376 133.416 166.376 136.514C166.376 139.613 168.889 142.125 171.987 142.125H173.391C176.49 142.125 179.002 139.613 179.002 136.514Z" fill="#7ACBFF"/>
<path d="M160.064 167.374C163.55 167.374 166.376 164.548 166.376 161.062V148.438C166.376 144.952 163.55 142.125 160.063 142.125C156.577 142.125 153.751 144.951 153.751 148.437C153.751 151.923 150.925 154.749 147.439 154.749H129.295C124.983 154.749 121.487 158.245 121.487 162.557V172.192C121.487 176.504 117.992 180 113.68 180H109.564C106.077 180 103.251 182.826 103.251 186.312C103.251 189.799 106.077 192.625 109.564 192.625H133.411C136.897 192.625 139.724 189.799 139.724 186.312C139.724 182.826 142.55 180 146.036 180H147.438C150.925 180 153.751 177.173 153.751 173.687C153.751 170.201 156.577 167.374 160.064 167.374Z" fill="#7ACBFF"/>
<path d="M109.565 154.749H96.9398C93.4534 154.749 90.6271 157.575 90.6271 161.062C90.6271 164.548 93.4534 167.374 96.9398 167.374H109.565C113.052 167.374 115.878 164.548 115.878 161.062C115.878 157.575 113.052 154.749 109.565 154.749Z" fill="#7ACBFF"/>
<path d="M95.5371 205.249C99.023 205.249 101.849 202.423 101.849 198.937V198.236C101.849 195.137 99.3369 192.625 96.238 192.625C93.1392 192.625 90.6271 190.113 90.6271 187.014V173.687C90.6271 170.201 87.8008 167.375 84.3144 167.375C80.828 167.375 78.0017 170.201 78.0017 173.687V192.625V197.441C78.0017 201.753 81.4973 205.249 85.8094 205.249H90.6271H95.5371Z" fill="#7ACBFF"/>
<path d="M153.751 224.187C153.751 227.674 156.577 230.5 160.064 230.5C163.55 230.5 166.376 227.674 166.376 224.187C166.376 220.701 163.55 217.875 160.064 217.875C156.577 217.875 153.751 220.701 153.751 224.187Z" fill="#7ACBFF"/>
<path d="M248.438 180C244.952 180 242.125 177.174 242.125 173.687C242.125 170.201 239.299 167.375 235.813 167.375C232.326 167.375 229.5 170.201 229.5 173.687V180V184.818C229.5 189.13 226.004 192.625 221.692 192.625H210.563C207.077 192.625 204.251 195.451 204.251 198.937C204.251 202.423 207.077 205.249 210.563 205.249H229.5H235.813C239.299 205.249 242.125 202.423 242.125 198.937C242.125 195.451 244.952 192.625 248.438 192.625C251.924 192.625 254.751 189.799 254.751 186.313C254.751 182.826 251.924 180 248.438 180Z" fill="#7ACBFF"/>
<path d="M153.751 186.313C153.751 189.799 150.924 192.625 147.438 192.625C143.952 192.625 141.126 195.451 141.126 198.937C141.126 202.423 143.952 205.249 147.437 205.249H179.703C183.189 205.249 186.015 202.423 186.015 198.937V196.132C186.015 194.195 184.445 192.625 182.508 192.625C180.572 192.625 179.002 191.055 179.002 189.119V186.313C179.002 182.826 176.175 180 172.689 180H160.064C156.577 180 153.751 182.826 153.751 186.313Z" fill="#7ACBFF"/>
<path d="M274.39 154.749C270.517 154.749 267.377 157.889 267.377 161.763V186.313C267.377 189.799 264.55 192.625 261.063 192.625C257.577 192.625 254.751 195.451 254.751 198.937C254.751 202.423 257.577 205.249 261.063 205.249H267.377H273.596C277.908 205.249 281.404 201.753 281.404 197.441V192.625V161.763C281.404 157.889 278.264 154.749 274.39 154.749Z" fill="#7ACBFF"/>
<path d="M191.626 224.188C191.626 227.674 188.8 230.5 185.314 230.5C181.828 230.5 179.002 233.327 179.002 236.813C179.002 240.298 181.828 243.125 185.314 243.125C188.8 243.125 191.626 245.951 191.626 249.437V255.749V262.062C191.626 265.548 188.8 268.374 185.314 268.374C181.828 268.374 179.002 265.548 179.002 262.062V255.749V250.933C179.002 246.621 175.506 243.125 171.194 243.125H160.063C156.577 243.125 153.751 245.951 153.751 249.437C153.751 252.923 156.577 255.749 160.063 255.749C163.55 255.749 166.376 258.575 166.376 262.062C166.376 265.548 163.55 268.374 160.064 268.374C156.577 268.374 153.751 271.201 153.751 274.687C153.751 278.173 156.577 281 160.064 281H248.438C251.925 281 254.751 278.173 254.751 274.687C254.751 271.201 251.925 268.374 248.438 268.374C244.952 268.374 242.126 265.548 242.126 262.062C242.126 258.575 244.952 255.749 248.438 255.749C251.925 255.749 254.751 258.575 254.751 262.062C254.751 265.548 257.577 268.374 261.064 268.374C264.55 268.374 267.376 271.201 267.376 274.687C267.376 278.173 270.203 281 273.689 281H274.39C278.264 281 281.404 277.86 281.404 273.986V255.749V243.125V236.11C281.404 232.236 278.264 229.096 274.39 229.096H272.987C269.888 229.096 267.376 226.584 267.376 223.485C267.376 220.386 264.864 217.874 261.765 217.874H261.064C257.577 217.874 254.751 220.701 254.751 224.187C254.751 227.674 257.577 230.5 261.064 230.5C264.55 230.5 267.376 233.326 267.376 236.813C267.376 240.299 264.55 243.125 261.064 243.125H249.933C245.621 243.125 242.126 239.63 242.126 235.318V224.888C242.126 221.015 238.985 217.874 235.112 217.874C231.238 217.874 228.098 221.015 228.098 224.888V260.567C228.098 264.879 224.603 268.374 220.291 268.374H210.564C207.077 268.374 204.251 265.548 204.251 262.062C204.251 258.575 207.078 255.749 210.564 255.749C214.05 255.749 216.876 252.923 216.876 249.437C216.876 245.951 214.05 243.125 210.564 243.125C207.078 243.125 204.251 240.299 204.251 236.813C204.251 233.326 207.077 230.5 210.564 230.5C214.05 230.5 216.876 227.674 216.876 224.187C216.876 220.701 214.05 217.874 210.564 217.874C207.077 217.874 204.251 215.048 204.251 211.562C204.251 208.075 201.425 205.249 197.938 205.249C194.452 205.249 191.626 208.075 191.626 211.562V224.188Z" fill="#7ACBFF"/>
<path d="M205.654 154.751C205.654 150.877 202.514 147.736 198.64 147.736C194.766 147.736 191.625 150.877 191.625 154.751V161.063C191.625 164.549 188.799 167.375 185.313 167.375C181.827 167.375 179.001 170.201 179.001 173.687C179.001 177.173 181.827 180 185.313 180H188.119C190.055 180 191.625 181.57 191.625 183.506C191.625 185.443 193.195 187.013 195.132 187.013H202.148C204.084 187.013 205.654 185.443 205.654 183.506C205.654 181.57 207.224 180 209.161 180H211.265C214.364 180 216.876 177.488 216.876 174.389V172.985C216.876 169.887 214.364 167.375 211.265 167.375C208.166 167.375 205.654 164.862 205.654 161.764V154.751Z" fill="#7ACBFF"/>
<path d="M242.125 161.062C242.125 164.548 244.952 167.374 248.438 167.374C251.924 167.374 254.751 164.548 254.751 161.062C254.751 157.575 251.924 154.749 248.438 154.749C244.952 154.749 242.125 157.575 242.125 161.062Z" fill="#7ACBFF"/>
<path d="M216.876 161.062C216.876 164.548 219.702 167.374 223.189 167.374C226.675 167.374 229.502 164.548 229.502 161.062C229.502 157.575 226.675 154.749 223.189 154.749C219.702 154.749 216.876 157.575 216.876 161.062Z" fill="#7ACBFF"/>
<path d="M204.251 110.562V97.938C204.251 94.4515 201.425 91.6252 197.938 91.6252C194.452 91.6252 191.626 94.4515 191.626 97.938V110.562C191.626 114.048 194.452 116.874 197.938 116.874C201.425 116.874 204.251 114.048 204.251 110.562Z" fill="#7ACBFF"/>
<path d="M179.001 85.3127C179.001 88.7991 181.828 91.6254 185.314 91.6254C188.801 91.6254 191.627 88.7991 191.627 85.3127C191.627 81.8263 188.801 79 185.314 79C181.828 79 179.001 81.8263 179.001 85.3127Z" fill="#7ACBFF"/>
<mask id="path-27-inside-1_8_615" fill="white">
<path d="M58 270H90V302H66C61.5817 302 58 298.418 58 294V270Z"/>
</mask>
<path d="M58 270H90H58ZM90 306H66C59.3726 306 54 300.627 54 294H62C62 296.209 63.7909 298 66 298H90V306ZM66 306C59.3726 306 54 300.627 54 294V270H62V294C62 296.209 63.7909 298 66 298V306ZM90 270V302V270Z" fill="white" mask="url(#path-27-inside-1_8_615)"/>
<mask id="path-29-inside-2_8_615" fill="white">
<path d="M270 270H302V294C302 298.418 298.418 302 294 302H270V270Z"/>
</mask>
<path d="M270 270H302H270ZM306 294C306 300.627 300.627 306 294 306H270V298H294C296.209 298 298 296.209 298 294H306ZM270 302V270V302ZM306 270V294C306 300.627 300.627 306 294 306V298C296.209 298 298 296.209 298 294V270H306Z" fill="white" mask="url(#path-29-inside-2_8_615)"/>
<path d="M278 55C291.255 55 302 65.7452 302 79C302 92.2548 291.255 103 278 103C264.745 103 254 92.2548 254 79C254 65.7452 264.745 55 278 55Z" fill="#7ACBFF"/>
<path d="M278 55C291.255 55 302 65.7452 302 79C302 92.2548 291.255 103 278 103C264.745 103 254 92.2548 254 79C254 65.7452 264.745 55 278 55Z" stroke="#E5E7EB"/>
<path d="M285.875 93H270.125V65H285.875V93Z" stroke="#E5E7EB"/>
<g clip-path="url(#clip0_8_615)">
<path d="M282.409 70.8179C282.616 70.3363 282.461 69.7738 282.036 69.4644C281.611 69.155 281.03 69.1832 280.633 69.5277L271.633 77.4027C271.282 77.7121 271.155 78.2078 271.32 78.6437C271.486 79.0796 271.907 79.375 272.375 79.375H276.295L273.591 85.682C273.384 86.1636 273.539 86.7261 273.964 87.0355C274.389 87.3449 274.97 87.3167 275.367 86.9722L284.367 79.0972C284.718 78.7878 284.845 78.2921 284.68 77.8562C284.514 77.4203 284.096 77.1285 283.625 77.1285H279.705L282.409 70.8179Z" fill="white"/>
</g>
<path d="M82 254C95.2548 254 106 264.745 106 278C106 291.255 95.2548 302 82 302C68.7452 302 58 291.255 58 278C58 264.745 68.7452 254 82 254Z" fill="#7ACBFF"/>
<path d="M82 254C95.2548 254 106 264.745 106 278C106 291.255 95.2548 302 82 302C68.7452 302 58 291.255 58 278C58 264.745 68.7452 254 82 254Z" stroke="#E5E7EB"/>
<path d="M93.25 292H70.75V264H93.25V292Z" stroke="#E5E7EB"/>
<path d="M93.25 286.25H70.75V268.25H93.25V286.25Z" stroke="#E5E7EB"/>
<path d="M78.2418 270.528L77.8762 271.625H75.25C74.009 271.625 73 272.634 73 273.875V282.875C73 284.116 74.009 285.125 75.25 285.125H88.75C89.991 285.125 91 284.116 91 282.875V273.875C91 272.634 89.991 271.625 88.75 271.625H86.1238L85.7582 270.528C85.5297 269.839 84.8863 269.375 84.1586 269.375H79.8414C79.1137 269.375 78.4703 269.839 78.2418 270.528ZM86.5 277.25C86.5 277.559 86.2469 277.812 85.9375 277.812H83.241C83.023 277.812 82.8438 277.633 82.8438 277.415C82.8438 277.31 82.8859 277.208 82.9598 277.134L83.793 276.301C83.3148 275.83 82.6715 275.562 82 275.562C81.325 275.562 80.6746 275.83 80.1965 276.311L79.5039 277.004C79.1734 277.334 78.6391 277.334 78.3121 277.004C77.9852 276.673 77.9816 276.139 78.3121 275.812L79.0047 275.12C79.7992 274.321 80.875 273.875 82 273.875C83.118 273.875 84.1938 274.318 84.9883 275.105L85.8215 274.272C85.8953 274.198 85.9973 274.156 86.1027 274.156C86.3207 274.156 86.5 274.336 86.5 274.554V277.25ZM77.5 279.5C77.5 279.191 77.7531 278.938 78.0625 278.938H80.759C80.977 278.938 81.1562 279.117 81.1562 279.335C81.1562 279.44 81.1141 279.542 81.0402 279.616L80.207 280.449C80.6852 280.92 81.3285 281.188 82 281.188C82.675 281.188 83.3254 280.92 83.8035 280.439L84.4961 279.746C84.8266 279.416 85.3609 279.416 85.6879 279.746C86.0148 280.077 86.0184 280.611 85.6879 280.938L84.9953 281.63C84.2008 282.429 83.125 282.875 82 282.875C80.882 282.875 79.8063 282.432 79.0117 281.645L78.1785 282.478C78.1047 282.552 78.0027 282.594 77.8973 282.594C77.6793 282.594 77.5 282.414 77.5 282.196V279.5Z" fill="white"/>
</g>
<defs>
<filter id="filter0_d_8_615" x="0" y="0" width="360" height="360" filterUnits="userSpaceOnUse" color-interpolation-filters="sRGB">
<feFlood flood-opacity="0" result="BackgroundImageFix"/>
<feColorMatrix in="SourceAlpha" type="matrix" values="0 0 0 0 0 0 0 0 0 0 0 0 0 0 0 0 0 0 127 0" result="hardAlpha"/>
<feOffset/>
<feGaussianBlur stdDeviation="20"/>
<feColorMatrix type="matrix" values="0 0 0 0 0.478431 0 0 0 0 0.796078 0 0 0 0 1 0 0 0 0.3 0"/>
<feBlend mode="normal" in2="BackgroundImageFix" result="effect1_dropShadow_8_615"/>
<feBlend mode="normal" in="SourceGraphic" in2="effect1_dropShadow_8_615" result="shape"/>
</filter>
<linearGradient id="paint0_linear_8_615" x1="42" y1="234.734" x2="318" y2="234.734" gradientUnits="userSpaceOnUse">
<stop stop-opacity="0"/>
<stop offset="0.5" stop-color="#7ACBFF"/>
<stop offset="1" stop-opacity="0"/>
</linearGradient>
<clipPath id="clip0_8_615">
<path d="M270.125 69.25H285.875V87.25H270.125V69.25Z" fill="white"/>
</clipPath>
</defs>
</svg>
